<?xml version="1.0" standalone="no"?>
<!DOCTYPE svg PUBLIC "-//W3C//DTD SVG 20010904//EN"
 "http://www.w3.org/TR/2001/REC-SVG-20010904/DTD/svg10.dtd">
<svg version="1.0" xmlns="http://www.w3.org/2000/svg"
 width="700.000000pt" height="700.000000pt" viewBox="0 0 700.000000 700.000000"
 preserveAspectRatio="xMidYMid meet">
<metadata>
Created by potrace 1.11, written by Peter Selinger 2001-2013
</metadata>
<g transform="translate(0.000000,700.000000) scale(0.100000,-0.100000)"
fill="#000000" stroke="none">
<path d="M0 3500 l0 -3500 3500 0 3500 0 0 3500 0 3500 -3500 0 -3500 0 0
-3500z m5300 1935 c130 -41 167 -134 157 -404 -8 -214 -30 -331 -120 -616 -43
-140 -184 -491 -208 -521 -4 -5 -27 -48 -50 -95 -51 -102 -79 -149 -177 -299
-65 -99 -174 -251 -207 -286 -5 -7 -30 -35 -55 -64 -89 -105 -272 -282 -370
-358 -30 -24 -58 -51 -62 -60 -4 -9 -7 -69 -7 -133 -1 -135 -30 -264 -85 -384
-35 -77 -99 -175 -142 -222 -15 -15 -34 -37 -43 -48 -43 -53 -168 -150 -266
-207 -158 -92 -483 -198 -607 -198 -113 0 -208 102 -208 224 0 55 3 90 35 377
23 205 24 194 -37 214 -81 26 -101 42 -285 227 -169 170 -196 206 -217 291 -6
24 -11 27 -48 27 -22 0 -98 -7 -167 -14 -211 -25 -334 -36 -380 -36 -114 0
-211 102 -211 220 0 54 51 258 94 376 15 43 87 193 109 229 140 231 332 398
538 468 132 45 192 56 328 60 73 3 136 8 140 13 4 5 25 32 47 59 43 56 43 56
170 186 176 180 305 287 514 424 220 144 516 298 710 370 278 102 479 158 665
185 44 6 87 13 95 15 8 2 78 2 155 1 98 -2 156 -8 195 -21z m-3020 -2650 c62
-32 92 -104 70 -169 -13 -40 -59 -83 -98 -92 -96 -20 -160 -61 -192 -124 -35
-69 -97 -370 -83 -406 8 -22 27 -23 129 -8 191 29 305 66 350 116 30 32 64
102 64 131 0 35 40 89 80 110 90 46 200 -25 200 -128 -1 -88 -78 -249 -155
-324 -95 -93 -275 -154 -558 -191 -208 -26 -289 -26 -333 1 -80 49 -89 112
-54 386 56 433 154 599 407 688 78 28 132 31 173 10z"/>
<path d="M4980 5175 c-8 -2 -49 -8 -90 -14 -195 -30 -435 -101 -680 -204 -120
-50 -401 -192 -466 -237 -25 -16 -47 -30 -49 -30 -12 0 -301 -208 -341 -245
-7 -5 -35 -30 -64 -55 -111 -96 -202 -195 -317 -344 -95 -124 -100 -126 -304
-126 -175 0 -213 -6 -332 -56 -145 -61 -277 -192 -374 -371 -38 -72 -110 -262
-113 -303 -4 -50 -3 -50 58 -45 109 10 348 36 465 51 118 15 119 15 159 -8 65
-36 80 -65 85 -155 2 -43 6 -88 8 -99 5 -20 219 -245 279 -291 24 -19 41 -23
105 -23 90 0 135 -18 168 -69 26 -38 29 -93 13 -213 -11 -88 -37 -327 -45
-420 l-6 -68 34 0 c30 0 76 14 215 65 95 34 231 120 313 196 83 78 153 189
190 299 17 54 22 99 28 256 6 188 6 191 33 226 15 20 45 46 65 59 21 13 40 25
43 28 3 4 32 28 65 56 131 108 253 230 350 349 48 59 215 293 215 301 0 3 16
29 35 59 19 30 54 92 79 138 24 46 53 99 64 119 71 127 189 437 248 651 32
119 64 329 64 423 0 98 -8 105 -108 104 -42 -1 -84 -3 -92 -4z m-682 -555 c84
-28 158 -76 221 -146 60 -66 86 -113 112 -204 43 -149 9 -324 -85 -445 -34
-44 -97 -105 -107 -105 -3 0 -19 -10 -35 -22 -50 -40 -178 -77 -266 -78 -219
-1 -425 150 -489 360 -18 61 -21 88 -16 178 6 122 24 183 76 257 139 199 369
279 589 205z"/>
<path d="M4060 4350 c-160 -54 -203 -258 -82 -379 40 -40 57 -49 108 -60 53
-11 69 -11 116 3 95 27 167 121 168 217 0 95 -71 193 -163 223 -60 20 -79 20
-147 -4z"/>
</g>
</svg>
